HIERARCHY
ROOT hips
{
	OFFSET 0.000000 104.274902 0.000000
	CHANNELS 6 Xposition Yposition Zposition Xrotation Yrotation Zrotation
	JOINT spine
	{
		OFFSET 0.000000 10.181549 0.131524
		CHANNELS 6 Xposition Yposition Zposition Xrotation Yrotation Zrotation
		JOINT chest
		{
			OFFSET 0.000000 9.893990 -1.470706
			CHANNELS 3 Xrotation Yrotation Zrotation
			JOINT upperChest
			{
				OFFSET 0.000000 9.220787 -1.370637
				CHANNELS 3 Xrotation Yrotation Zrotation
				JOINT neck
				{
					OFFSET 0.000000 16.740372 -2.049022
					CHANNELS 6 Xposition Yposition Zposition Xrotation Yrotation Zrotation
					JOINT head
					{
						OFFSET 0.000000 9.617859 1.684976
						CHANNELS 6 Xposition Yposition Zposition Xrotation Yrotation Zrotation
						JOINT headEnd
						{
							OFFSET 0.000000 22.037384 7.501072
							CHANNELS 6 Xposition Yposition Zposition Xrotation Yrotation Zrotation
							End Site
							{
								OFFSET 0.000000 23.106567 -2.828246
							}
						}
					}
				}
				JOINT rightShoulder
				{
					OFFSET -4.570000 11.014877 -2.160840
					CHANNELS 6 Xposition Yposition Zposition Xrotation Yrotation Zrotation
					JOINT rightUpperArm
					{
						OFFSET -10.592867 -0.524796 -2.232105
						CHANNELS 3 Xrotation Yrotation Zrotation
						JOINT rightLowerArm
						{
							OFFSET -27.841497 0.000000 -0.000002
							CHANNELS 3 Xrotation Yrotation Zrotation
							JOINT rightHand
							{
								OFFSET -28.328812 0.000000 -0.000001
								CHANNELS 3 Xrotation Yrotation Zrotation
								JOINT rightThumbProximal
								{
									OFFSET -2.464798 -1.573990 2.681911
									CHANNELS 6 Xposition Yposition Zposition Xrotation Yrotation Zrotation
									JOINT rightThumbIntermediate
									{
										OFFSET -3.244781 -1.873383 1.873376
										CHANNELS 3 Xrotation Yrotation Zrotation
										JOINT rightThumbDistal
										{
											OFFSET -2.646263 -1.527817 1.527818
											CHANNELS 6 Xposition Yposition Zposition Xrotation Yrotation Zrotation
											JOINT rightHandThumb4
											{
												OFFSET -1.994591 -1.151581 1.151575
												CHANNELS 6 Xposition Yposition Zposition Xrotation Yrotation Zrotation
												End Site
												{
													OFFSET -1.860176 -1.142715 1.365483
												}
											}
										}
									}
								}
								JOINT rightIndexProximal
								{
									OFFSET -9.108299 -0.517883 2.259803
									CHANNELS 6 Xposition Yposition Zposition Xrotation Yrotation Zrotation
									JOINT rightIndexIntermediate
									{
										OFFSET -3.699997 0.000000 0.000000
										CHANNELS 3 Xrotation Yrotation Zrotation
										JOINT rightIndexDistal
										{
											OFFSET -2.850006 0.000000 0.000000
											CHANNELS 3 Xrotation Yrotation Zrotation
											JOINT rightHandIndex4
											{
												OFFSET -2.772194 0.000000 0.000000
												CHANNELS 3 Xrotation Yrotation Zrotation
												End Site
												{
													OFFSET -2.772202 0.000000 -0.000484
												}
											}
										}
									}
								}
								JOINT rightMiddleProximal
								{
									OFFSET -9.532501 0.000000 -0.000000
									CHANNELS 6 Xposition Yposition Zposition Xrotation Yrotation Zrotation
									JOINT rightMiddleIntermediate
									{
										OFFSET -3.699997 0.000000 0.000000
										CHANNELS 3 Xrotation Yrotation Zrotation
										JOINT rightMiddleDistal
										{
											OFFSET -2.949997 0.000000 0.000000
											CHANNELS 3 Xrotation Yrotation Zrotation
											JOINT rightHandMiddle4
											{
												OFFSET -2.946594 0.000000 0.000000
												CHANNELS 3 Xrotation Yrotation Zrotation
												End Site
												{
													OFFSET -2.946602 0.000000 -0.000982
												}
											}
										}
									}
								}
								JOINT rightRingProximal
								{
									OFFSET -9.103600 -0.043106 -1.865100
									CHANNELS 6 Xposition Yposition Zposition Xrotation Yrotation Zrotation
									JOINT rightRingIntermediate
									{
										OFFSET -3.379303 0.000000 0.000000
										CHANNELS 3 Xrotation Yrotation Zrotation
										JOINT rightRingDistal
										{
											OFFSET -2.889694 0.000000 0.000000
											CHANNELS 3 Xrotation Yrotation Zrotation
											JOINT rightHandRing4
											{
												OFFSET -2.638802 0.000000 0.000000
												CHANNELS 3 Xrotation Yrotation Zrotation
												End Site
												{
													OFFSET -2.638802 0.000000 0.004218
												}
											}
										}
									}
								}
								JOINT rightLittleProximal
								{
									OFFSET -8.076698 -0.486725 -3.806299
									CHANNELS 6 Xposition Yposition Zposition Xrotation Yrotation Zrotation
									JOINT rightLittleIntermediate
									{
										OFFSET -3.600006 0.000000 0.000000
										CHANNELS 3 Xrotation Yrotation Zrotation
										JOINT rightLittleDistal
										{
											OFFSET -2.099998 0.000000 0.000000
											CHANNELS 3 Xrotation Yrotation Zrotation
											JOINT rightHandPinky4
											{
												OFFSET -2.115791 0.000000 0.000000
												CHANNELS 3 Xrotation Yrotation Zrotation
												End Site
												{
													OFFSET -2.115799 0.000000 0.000174
												}
											}
										}
									}
								}
							}
						}
					}
				}
				JOINT leftShoulder
				{
					OFFSET 4.570400 11.014679 -2.160816
					CHANNELS 6 Xposition Yposition Zposition Xrotation Yrotation Zrotation
					JOINT leftUpperArm
					{
						OFFSET 10.592373 -0.524597 -2.232116
						CHANNELS 3 Xrotation Yrotation Zrotation
						JOINT leftLowerArm
						{
							OFFSET 27.841488 0.000000 0.000001
							CHANNELS 3 Xrotation Yrotation Zrotation
							JOINT leftHand
							{
								OFFSET 28.328808 0.000000 -0.000000
								CHANNELS 3 Xrotation Yrotation Zrotation
								JOINT leftThumbProximal
								{
									OFFSET 2.466103 -1.576202 2.681698
									CHANNELS 6 Xposition Yposition Zposition Xrotation Yrotation Zrotation
									JOINT leftThumbIntermediate
									{
										OFFSET 3.243317 -1.872528 1.872530
										CHANNELS 3 Xrotation Yrotation Zrotation
										JOINT leftThumbDistal
										{
											OFFSET 2.647881 -1.528763 1.528754
											CHANNELS 6 Xposition Yposition Zposition Xrotation Yrotation Zrotation
											JOINT leftHandThumb4
											{
												OFFSET 1.998924 -1.154083 1.154080
												CHANNELS 6 Xposition Yposition Zposition Xrotation Yrotation Zrotation
												End Site
												{
													OFFSET 1.884041 -1.149155 1.337651
												}
											}
										}
									}
								}
								JOINT leftIndexProximal
								{
									OFFSET 9.109299 -0.518005 2.259900
									CHANNELS 6 Xposition Yposition Zposition Xrotation Yrotation Zrotation
									JOINT leftIndexIntermediate
									{
										OFFSET 3.699997 0.000000 0.000000
										CHANNELS 3 Xrotation Yrotation Zrotation
										JOINT leftIndexDistal
										{
											OFFSET 2.850006 0.000000 0.000000
											CHANNELS 3 Xrotation Yrotation Zrotation
											JOINT leftHandIndex4
											{
												OFFSET 2.774895 0.000000 0.000000
												CHANNELS 3 Xrotation Yrotation Zrotation
												End Site
												{
													OFFSET 2.774902 0.000000 -0.000072
												}
											}
										}
									}
								}
								JOINT leftMiddleProximal
								{
									OFFSET 9.533401 0.000000 0.000000
									CHANNELS 6 Xposition Yposition Zposition Xrotation Yrotation Zrotation
									JOINT leftMiddleIntermediate
									{
										OFFSET 3.699997 0.000000 0.000000
										CHANNELS 3 Xrotation Yrotation Zrotation
										JOINT leftMiddleDistal
										{
											OFFSET 2.949997 0.000000 0.000000
											CHANNELS 3 Xrotation Yrotation Zrotation
											JOINT leftHandMiddle4
											{
												OFFSET 2.952896 0.000000 0.000000
												CHANNELS 3 Xrotation Yrotation Zrotation
												End Site
												{
													OFFSET 2.952904 0.000000 0.000165
												}
											}
										}
									}
								}
								JOINT leftRingProximal
								{
									OFFSET 9.104500 -0.042999 -1.865101
									CHANNELS 6 Xposition Yposition Zposition Xrotation Yrotation Zrotation
									JOINT leftRingIntermediate
									{
										OFFSET 3.149994 0.000000 0.000000
										CHANNELS 3 Xrotation Yrotation Zrotation
										JOINT leftRingDistal
										{
											OFFSET 2.950005 0.000000 0.000000
											CHANNELS 3 Xrotation Yrotation Zrotation
											JOINT leftHandRing4
											{
												OFFSET 2.644302 0.000000 0.000000
												CHANNELS 3 Xrotation Yrotation Zrotation
												End Site
												{
													OFFSET 2.644302 0.000000 0.000083
												}
											}
										}
									}
								}
								JOINT leftLittleProximal
								{
									OFFSET 8.077805 -0.486893 -3.806302
									CHANNELS 6 Xposition Yposition Zposition Xrotation Yrotation Zrotation
									JOINT leftLittleIntermediate
									{
										OFFSET 3.600006 0.000000 0.000000
										CHANNELS 3 Xrotation Yrotation Zrotation
										JOINT leftLittleDistal
										{
											OFFSET 2.099998 0.000000 0.000000
											CHANNELS 3 Xrotation Yrotation Zrotation
											JOINT leftHandPinky4
											{
												OFFSET 2.125496 0.000000 0.000000
												CHANNELS 3 Xrotation Yrotation Zrotation
												End Site
												{
													OFFSET 2.125504 0.000000 -0.001254
												}
											}
										}
									}
								}
							}
						}
					}
				}
			}
		}
	}
	JOINT rightUpperLeg
	{
		OFFSET -8.207800 -6.751701 -1.599544
		CHANNELS 6 Xposition Yposition Zposition Xrotation Yrotation Zrotation
		JOINT rightLowerLeg
		{
			OFFSET 0.000004 -44.370152 0.345934
			CHANNELS 3 Xrotation Yrotation Zrotation
			JOINT rightFoot
			{
				OFFSET 0.000004 -44.423664 -3.043535
				CHANNELS 3 Xrotation Yrotation Zrotation
				JOINT rightToes
				{
					OFFSET 0.000001 -8.728691 10.710592
					CHANNELS 3 Xrotation Yrotation Zrotation
					JOINT rightToesEnd
					{
						OFFSET 0.000000 -0.000665 9.278101
						CHANNELS 3 Xrotation Yrotation Zrotation
						End Site
						{
							OFFSET 0.000000 -0.000665 9.278103
						}
					}
				}
			}
		}
	}
	JOINT leftUpperLeg
	{
		OFFSET 8.207800 -6.751701 -1.599544
		CHANNELS 6 Xposition Yposition Zposition Xrotation Yrotation Zrotation
		JOINT leftLowerLeg
		{
			OFFSET 0.000004 -44.370037 0.346940
			CHANNELS 3 Xrotation Yrotation Zrotation
			JOINT leftFoot
			{
				OFFSET 0.000004 -44.423611 -3.044388
				CHANNELS 3 Xrotation Yrotation Zrotation
				JOINT leftToes
				{
					OFFSET 0.000001 -8.728690 10.710592
					CHANNELS 3 Xrotation Yrotation Zrotation
					JOINT leftToesEnd
					{
						OFFSET 0.000000 -0.000680 9.278101
						CHANNELS 3 Xrotation Yrotation Zrotation
						End Site
						{
							OFFSET 0.000000 -0.000680 9.278101
						}
					}
				}
			}
		}
	}
}
MOTION
Frames: 4
Frame Time: 0.033333
1.349481 98.243965 2.027839 -3.797520 -7.004537 7.351982 -0.000001 10.181547 0.131523 0.739323 2.118073 -9.012627 7.322330 -0.176669 -3.878916 7.334417 -0.063483 -3.869423 0.000001 16.740381 -2.049021 -0.565017 3.598348 -0.857478 -0.000001 9.617846 1.684973 -19.915423 18.028942 -0.719733 -0.000001 22.037369 7.501072 0.000000 0.000001 0.000001 -4.569999 11.014896 -2.160839 0.608589 4.340393 5.111795 12.051172 43.965323 31.385170 0.000146 116.437650 -0.000090 0.525913 -1.546786 -4.302766 -2.464791 -1.573986 2.681909 -2.383221 -19.712382 -9.204580 6.045620 -24.847275 -1.253520 -2.646262 -1.527821 1.527822 -0.588632 -7.469678 -2.891641 -1.994586 -1.151580 1.151594 0.000003 -0.000002 -0.000002 -9.108292 -0.517866 2.259806 0.159813 1.485079 -12.282643 0.516983 -2.635536 22.192386 1.591262 -4.431496 39.488674 -0.000002 -0.000002 0.000000 -9.532498 0.000005 -0.000004 0.024405 0.583196 -4.791262 0.818207 -3.277461 28.027574 1.882637 -4.761993 43.122997 0.000001 0.000002 0.000002 -9.103593 -0.043106 -1.865105 0.022223 -0.556655 4.572801 1.284460 -4.031463 35.332569 2.274612 -5.147252 47.659366 -0.000005 0.000005 -0.000002 -8.076702 -0.486732 -3.806300 0.153755 -1.457014 12.046799 1.728609 -4.592556 41.234211 2.606760 -5.430109 51.261601 0.000001 0.000003 -0.000000 4.570404 11.014701 -2.160814 0.649059 -3.934330 -5.400987 6.336688 -12.972041 -42.451326 0.000166 -93.384348 0.000150 15.937884 1.475195 2.952913 2.466097 -1.576203 2.681685 -1.948619 17.809051 8.316552 4.968116 20.881101 1.676097 2.647888 -1.528761 1.528744 0.679613 16.452635 3.900982 1.998928 -1.154080 1.154074 -0.000001 -0.000003 0.000002 9.109297 -0.518014 2.259884 0.000379 -0.072788 0.603178 0.091857 1.123280 -9.350406 0.215056 1.710859 -14.329674 -0.000004 -0.000002 0.000002 9.533401 0.000010 -0.000006 0.009964 0.371100 -3.076611 0.178422 1.560466 -13.045859 0.389482 2.287203 -19.326930 -0.000000 0.000000 0.000003 9.104502 -0.042983 -1.865108 0.062415 0.926924 -7.704692 0.325672 2.096587 -17.658739 0.675904 2.980041 -25.554478 0.000001 0.000002 -0.000000 8.077802 -0.486895 -3.806315 0.922258 5.343405 -10.929422 0.479412 -1.539899 -21.851464 0.957705 3.508231 -30.530836 -0.000000 0.000000 -0.000000 -8.207803 -6.751710 -1.599541 -29.335085 -11.697656 -18.591681 43.486008 4.309042 -9.983392 -3.972054 -0.741022 9.516817 -12.053739 0.000004 0.000001 0.000000 -0.000001 -0.000000 8.207798 -6.751698 -1.599544 -10.094540 2.304643 -7.282839 33.675391 9.327190 -1.466806 -18.780858 15.452656 -1.977735 -2.675388 -0.000009 -0.000001 -0.000000 -0.000000 0.000000 
1.429070 98.536842 1.938942 -4.174159 -6.624774 5.893602 0.000003 10.181553 0.131525 1.419005 2.397574 -8.104768 7.365877 -0.079064 -3.668217 7.377707 0.018747 -3.652873 0.000003 16.740377 -2.049020 -0.588516 3.448177 -0.855220 0.000000 9.617855 1.684981 -19.951035 17.299660 -0.783860 0.000005 22.037354 7.501080 -0.000001 -0.000001 0.000001 -4.569998 11.014895 -2.160842 0.622213 4.424961 4.799384 11.905702 44.051746 34.113014 0.000226 111.148467 -0.000176 0.337944 -1.516181 -4.281348 -2.464794 -1.573985 2.681929 -2.383222 -19.712385 -9.204582 6.045616 -24.847267 -1.253516 -2.646263 -1.527804 1.527817 -0.588637 -7.469683 -2.891641 -1.994597 -1.151586 1.151569 0.000001 -0.000004 -0.000004 -9.108296 -0.517871 2.259816 0.150795 1.443099 -11.930098 0.525126 -2.655409 22.368916 1.598117 -4.439766 39.577275 0.000003 -0.000005 0.000001 -9.532497 0.000004 0.000012 0.036293 0.710956 -5.844215 0.801179 -3.245333 27.728244 1.864187 -4.742305 42.900538 0.000001 0.000003 0.000003 -9.103598 -0.043111 -1.865079 0.003308 -0.214868 1.763355 1.222199 -3.942370 34.437015 2.219968 -5.097080 47.047111 -0.000000 0.000005 -0.000001 -8.076692 -0.486713 -3.806283 0.065080 -0.951094 7.829347 1.620388 -4.466480 39.864088 2.519352 -5.359126 50.331906 0.000001 0.000002 0.000003 4.570403 11.014681 -2.160816 0.646296 -3.862511 -5.535027 7.238557 -13.615950 -41.570307 0.000036 -97.665783 0.000023 14.667568 1.666239 3.079390 2.466107 -1.576203 2.681707 -1.948619 17.809045 8.316553 4.968115 20.881107 1.676100 2.647889 -1.528761 1.528750 0.679606 16.452638 3.900984 1.998929 -1.154081 1.154082 0.000001 0.000004 0.000001 9.109293 -0.518006 2.259903 0.002569 -0.188728 1.564102 0.082672 1.066023 -8.869768 0.207941 1.682744 -14.089240 0.000005 0.000001 0.000000 9.533409 -0.000001 0.000005 0.009887 0.369695 -3.064863 0.185088 1.588983 -13.288884 0.385322 2.275310 -19.222285 0.000005 0.000004 0.000001 9.104502 -0.043012 -1.865101 0.082838 1.067112 -8.878911 0.369113 2.228319 -18.809714 0.679215 2.986956 -25.618151 -0.000000 -0.000000 0.000001 8.077809 -0.486881 -3.806303 1.125447 5.561788 -13.067650 0.566837 -1.331870 -23.718926 0.969988 3.528956 -30.731203 -0.000000 0.000002 0.000000 -8.207804 -6.751695 -1.599539 -28.815643 -12.525075 -16.802772 42.881970 1.277287 -10.001145 -1.099249 -0.644617 9.539721 -13.815109 0.000002 -0.000002 -0.000000 0.000000 0.000000 8.207800 -6.751699 -1.599543 -9.733404 2.520734 -6.223111 33.348057 9.804028 -0.338575 -18.347845 14.728150 -2.704406 -2.481236 -0.000002 0.000000 -0.000000 -0.000002 0.000000 
1.548313 98.833138 1.892742 -4.635763 -6.126428 4.141936 0.000000 10.181554 0.131524 2.261195 2.732389 -7.028093 7.303892 0.043105 -3.227198 7.314885 0.122664 -3.205102 0.000000 16.740368 -2.049021 -0.380383 3.241366 -0.832261 0.000004 9.617835 1.684987 -19.639745 16.365867 -1.001796 0.000001 22.037354 7.501069 -0.000000 0.000001 -0.000001 -4.570001 11.014870 -2.160839 0.631114 4.442956 4.498103 10.809775 44.228323 37.665512 0.000283 103.332484 -0.000223 1.165756 -1.538312 -4.240854 -2.464796 -1.574002 2.681902 -2.383223 -19.712387 -9.204585 6.045618 -24.847270 -1.253521 -2.646272 -1.527820 1.527823 -0.588635 -7.469680 -2.891633 -1.994581 -1.151576 1.151581 0.000004 -0.000000 -0.000004 -9.108297 -0.517863 2.259801 0.143598 1.408597 -11.640675 0.531880 -2.671715 22.513845 1.603753 -4.446549 39.650044 0.000001 0.000001 -0.000001 -9.532496 0.000016 -0.000004 0.048951 0.825262 -6.788242 0.779015 -3.202883 27.334514 1.844055 -4.720633 42.656335 -0.000003 -0.000001 0.000003 -9.103606 -0.043113 -1.865105 0.000559 0.087976 -0.721946 1.149700 -3.834752 33.368278 2.163298 -5.043954 46.405996 0.000001 0.000002 0.000001 -8.076693 -0.486713 -3.806310 0.017951 -0.500356 4.109401 1.497355 -4.315323 38.257122 2.430016 -5.284073 49.368631 0.000001 0.000000 -0.000000 4.570402 11.014656 -2.160813 0.642579 -3.765602 -5.596978 8.651087 -14.916633 -40.385204 0.000079 -102.659280 0.000057 13.434958 2.021249 3.083185 2.466110 -1.576204 2.681694 -1.948620 17.809044 8.316551 4.968114 20.881107 1.676097 2.647881 -1.528775 1.528754 0.679607 16.452635 3.900978 1.998929 -1.154093 1.154084 -0.000007 0.000002 0.000001 9.109315 -0.518008 2.259893 0.004135 -0.238988 1.980871 0.078848 1.041179 -8.661292 0.204881 1.670541 -13.984967 -0.000001 -0.000001 0.000000 9.533408 0.000011 -0.000001 0.011232 0.393977 -3.266207 0.193874 1.625694 -13.601918 0.383201 2.269221 -19.168774 -0.000002 0.000002 0.000000 9.104499 -0.042991 -1.865107 0.101972 1.183054 -9.852865 0.407621 2.338269 -19.776562 0.679705 2.987963 -25.627462 0.000001 0.000002 -0.000001 8.077813 -0.486896 -3.806303 1.283156 5.720513 -14.671940 0.641000 -1.168852 -25.201151 0.973706 3.535208 -30.791753 -0.000001 0.000000 0.000000 -8.207801 -6.751702 -1.599539 -27.740257 -11.827927 -14.588232 42.614203 -0.082096 -9.910871 2.861745 -0.467396 9.809900 -14.743489 -0.001030 0.319562 0.000000 0.000001 0.000000 8.207799 -6.751705 -1.599542 -9.324353 2.708782 -5.942413 32.740635 9.983814 2.720520 -17.618804 15.127807 -4.120672 -2.164251 -0.000007 0.000003 -0.000000 0.000000 0.000000 
1.695102 98.963890 1.901958 -5.182093 -5.330783 1.882228 0.000000 10.181551 0.131525 3.286346 3.137953 -5.721049 7.116496 0.196732 -2.436459 7.125703 0.255791 -2.406873 0.000003 16.740360 -2.049019 0.155119 2.949089 -0.770617 -0.000000 9.617869 1.684980 -18.885118 15.122391 -1.427123 0.000000 22.037384 7.501074 -0.000001 0.000001 -0.000000 -4.569999 11.014875 -2.160840 0.632073 4.365205 4.232800 8.297071 44.336827 42.386160 0.001702 92.051607 -0.001632 3.366859 -1.656265 -4.178514 -2.464794 -1.574006 2.681911 -2.383219 -19.712385 -9.204581 6.045618 -24.847275 -1.253514 -2.646263 -1.527806 1.527824 -0.588635 -7.469679 -2.891641 -1.994583 -1.151567 1.151577 0.000005 -0.000003 -0.000000 -9.108296 -0.517869 2.259805 0.140634 1.394165 -11.519829 0.534690 -2.678502 22.574380 1.606120 -4.449380 39.680421 -0.000001 0.000001 -0.000000 -9.532496 -0.000003 0.000005 0.061369 0.923713 -7.602648 0.748855 -3.143920 26.789247 1.820786 -4.695316 42.372738 0.000000 -0.000002 0.000001 -9.103600 -0.043096 -1.865095 0.007774 0.329505 -2.704812 1.063977 -3.701587 32.063746 2.104155 -4.987205 45.729489 -0.000001 -0.000002 0.000002 -8.076694 -0.486730 -3.806295 0.001509 -0.145113 1.190855 1.356582 -4.131078 36.345943 2.339170 -5.205098 48.374880 -0.000001 0.000002 0.000002 4.570403 11.014710 -2.160817 0.637511 -3.643386 -5.561326 10.428620 -17.312708 -38.636673 0.000040 -108.530750 0.000032 12.201514 2.627030 2.915140 2.466110 -1.576210 2.681688 -1.948625 17.809045 8.316551 4.968111 20.881104 1.676101 2.647880 -1.528767 1.528754 0.679606 16.452635 3.900985 1.998929 -1.154078 1.154079 -0.000003 0.000004 0.000001 9.109304 -0.518005 2.259888 0.002684 -0.192543 1.595651 0.082367 1.064152 -8.853965 0.207717 1.681827 -14.081329 0.000002 -0.000002 -0.000002 9.533408 0.000001 -0.000016 0.015051 0.456074 -3.781859 0.206280 1.676147 -14.032837 0.383915 2.271251 -19.186684 0.000003 0.000004 -0.000002 9.104504 -0.042994 -1.865111 0.116466 1.263688 -10.532170 0.437866 2.420647 -20.504875 0.675558 2.979316 -25.547766 0.000004 0.000000 0.000001 8.077815 -0.486884 -3.806314 1.365102 5.799561 -15.488446 0.691365 -1.064151 -26.163028 0.963975 3.518825 -30.633296 0.000001 -0.000001 0.000001 -8.207800 -6.751727 -1.599540 -26.159616 -10.155605 -11.664681 42.570079 -0.797635 -9.826107 6.395688 -0.231819 9.900754 -16.978735 -0.063907 2.517054 0.000000 -0.000001 -0.000000 8.207799 -6.751713 -1.599546 -9.180576 2.828610 -5.012592 32.894959 10.103539 5.613977 -17.321744 15.316392 -5.537035 -1.740976 -0.000003 -0.000001 0.000000 0.000000 0.000000 
